<svg width="213" height="100" viewBox="0 0 213 100" fill="none" xmlns="http://www.w3.org/2000/svg">
<path d="M176.849 46.542H150.468C149.389 46.542 148.514 47.4123 148.514 48.4859V74.7289C148.514 75.8025 149.389 76.6728 150.468 76.6728H176.849C177.928 76.6728 178.803 75.8025 178.803 74.7289V48.4859C178.803 47.4123 177.928 46.542 176.849 46.542Z" fill="#D9D9D9"/>
<path d="M176.849 46.542H150.468C149.389 46.542 148.514 47.4123 148.514 48.4859V74.7289C148.514 75.8025 149.389 76.6728 150.468 76.6728H176.849C177.928 76.6728 178.803 75.8025 178.803 74.7289V48.4859C178.803 47.4123 177.928 46.542 176.849 46.542Z" fill="url(#paint0_linear_356_212)"/>
<path d="M173.917 50.0411H153.399C152.644 50.0411 152.031 50.6504 152.031 51.4019V71.8131C152.031 72.5646 152.644 73.1738 153.399 73.1738H173.917C174.673 73.1738 175.285 72.5646 175.285 71.8131V51.4019C175.285 50.6504 174.673 50.0411 173.917 50.0411Z" fill="#FBFBFF" stroke="#040F16" stroke-width="1.2"/>
<path d="M174.645 49.8176L175.336 50.5049L178.629 47.2293L177.938 46.542L174.645 49.8176Z" fill="#040F16"/>
<path d="M148.514 76.0606L149.205 76.7479L152.497 73.4723L151.806 72.785L148.514 76.0606Z" fill="#040F16"/>
<path d="M175.585 72.785L174.894 73.4723L177.938 76.5001L178.629 75.8129L175.585 72.785Z" fill="#040F16"/>
<path d="M149.205 46.5421L148.514 47.2294L151.863 50.561L152.554 49.8737L149.205 46.5421Z" fill="#040F16"/>
<path d="M176.849 12.5233H150.468C149.389 12.5233 148.514 13.3936 148.514 14.4672V40.7102C148.514 41.7838 149.389 42.6542 150.468 42.6542H176.849C177.928 42.6542 178.803 41.7838 178.803 40.7102V14.4672C178.803 13.3936 177.928 12.5233 176.849 12.5233Z" fill="url(#paint1_linear_356_212)"/>
<path d="M173.917 16.0225H153.399C152.644 16.0225 152.031 16.6317 152.031 17.3832V37.7944C152.031 38.5459 152.644 39.1552 153.399 39.1552H173.917C174.673 39.1552 175.285 38.5459 175.285 37.7944V17.3832C175.285 16.6317 174.673 16.0225 173.917 16.0225Z" fill="#FBFBFF" stroke="#040F16" stroke-width="1.2"/>
<path d="M174.645 15.7989L175.336 16.4862L178.629 13.2106L177.938 12.5233L174.645 15.7989Z" fill="#040F16"/>
<path d="M148.514 42.042L149.205 42.7292L152.497 39.4536L151.806 38.7664L148.514 42.042Z" fill="#040F16"/>
<path d="M175.585 38.7663L174.894 39.4536L177.938 42.4815L178.629 41.7942L175.585 38.7663Z" fill="#040F16"/>
<path d="M149.205 12.5234L148.514 13.2107L151.863 16.5423L152.554 15.855L149.205 12.5234Z" fill="#040F16"/>
<path d="M211.046 46.542H184.665C183.586 46.542 182.711 47.4123 182.711 48.4859V74.7289C182.711 75.8025 183.586 76.6728 184.665 76.6728H211.046C212.125 76.6728 213 75.8025 213 74.7289V48.4859C213 47.4123 212.125 46.542 211.046 46.542Z" fill="url(#paint2_linear_356_212)"/>
<path d="M208.115 50.0411H187.596C186.841 50.0411 186.228 50.6504 186.228 51.4019V71.8131C186.228 72.5646 186.841 73.1738 187.596 73.1738H208.115C208.87 73.1738 209.483 72.5646 209.483 71.8131V51.4019C209.483 50.6504 208.87 50.0411 208.115 50.0411Z" fill="#FBFBFF" stroke="#040F16" stroke-width="1.2"/>
<path d="M208.843 49.8176L209.533 50.5049L212.826 47.2293L212.135 46.542L208.843 49.8176Z" fill="#040F16"/>
<path d="M182.711 76.0606L183.402 76.7479L186.695 73.4723L186.004 72.785L182.711 76.0606Z" fill="#040F16"/>
<path d="M209.783 72.785L209.092 73.4723L212.135 76.5001L212.826 75.8129L209.783 72.785Z" fill="#040F16"/>
<path d="M183.402 46.5421L182.711 47.2294L186.06 50.561L186.751 49.8737L183.402 46.5421Z" fill="#040F16"/>
<path d="M7.6333 27.8242C7.6333 26.4827 7.82413 25.2297 8.2058 24.0654C8.58746 22.8757 9.09636 21.8507 9.73247 20.99C10.394 20.1042 11.1574 19.4208 12.0225 18.9399C12.8876 18.4336 13.8163 18.1805 14.8086 18.1805H45.3418V24.597H16.7551V69.1705H36.3728V42.1758H45.4182L45.3418 80.1431C45.3418 81.4339 45.151 82.6489 44.7694 83.7879C44.4131 84.9523 43.917 85.9647 43.2809 86.8253C42.6447 87.7113 41.8942 88.4073 41.0291 88.9136C40.164 89.4198 39.248 89.6729 38.2811 89.6729H36.3728V75.7009H14.8086C13.8163 75.7009 12.8876 75.4478 12.0225 74.9416C11.1574 74.4353 10.394 73.7519 9.73247 72.8914C9.09636 72.0308 8.58746 71.0183 8.2058 69.854C7.82413 68.6897 7.6333 67.4493 7.6333 66.1331V27.8242ZM59.0819 27.7862C59.0819 26.4447 59.2727 25.1918 59.6544 24.0274C60.036 22.8378 60.5448 21.8127 61.181 20.9521C61.8426 20.0662 62.6059 19.3828 63.471 18.9019C64.3362 18.3957 65.2649 18.1425 66.2572 18.1425H88.3938C89.3861 18.1425 90.3275 18.3957 91.2181 18.9019C92.1086 19.3828 92.872 20.0662 93.5081 20.9521C94.1696 21.8127 94.6913 22.8378 95.0729 24.0274C95.4546 25.1918 95.6454 26.4447 95.6454 27.7862V66.1331C95.6454 67.4493 95.4546 68.6897 95.0729 69.854C94.6913 71.0183 94.1696 72.0308 93.5081 72.8914C92.8465 73.7519 92.0705 74.4353 91.1799 74.9416C90.3148 75.4478 89.3861 75.7009 88.3938 75.7009H66.2572C65.2649 75.7009 64.3362 75.4478 63.471 74.9416C62.6059 74.4353 61.8426 73.7519 61.181 72.8914C60.5448 72.0308 60.036 71.0183 59.6544 69.854C59.2727 68.6897 59.0819 67.4493 59.0819 66.1331V27.7862ZM86.5618 69.2085V24.559H68.2037V69.2085H86.5618Z" fill="url(#paint3_linear_356_212)"/>
<path d="M159.139 23.4637C159.139 23.1283 159.187 22.815 159.282 22.524C159.378 22.2329 159.505 21.9798 159.664 21.7646C159.829 21.5431 160.024 21.3691 160.246 21.2426C160.469 21.116 160.705 21.0527 160.952 21.0527H167.631V29.3676H169.645C169.619 29.589 169.556 29.801 169.454 30.0035C169.358 30.1997 169.234 30.3706 169.082 30.5161C168.935 30.6617 168.767 30.7787 168.576 30.8672C168.385 30.9496 168.185 30.9907 167.975 30.9907H167.631V33.6958C167.631 34.0313 167.584 34.3444 167.488 34.6355C167.393 34.9329 167.263 35.1893 167.098 35.4043C166.931 35.6259 166.741 35.7998 166.525 35.9264C166.308 36.0593 166.076 36.1257 165.828 36.1257H161.2V34.4837H165.351V29.9371C165.167 30.2662 164.94 30.5256 164.673 30.7154C164.407 30.8989 164.126 30.9907 163.834 30.9907H160.952C160.705 30.9907 160.469 30.9274 160.246 30.8008C160.024 30.6743 159.829 30.5034 159.664 30.2882C159.505 30.0668 159.378 29.8105 159.282 29.5194C159.187 29.2283 159.139 28.9151 159.139 28.5797V23.4637ZM165.351 29.3676V22.6758H161.41V29.3676H165.351Z" fill="black"/>
<path d="M141.674 46.542H115.294C114.214 46.542 113.339 47.4123 113.339 48.4859V74.7289C113.339 75.8025 114.214 76.6728 115.294 76.6728H141.674C142.754 76.6728 143.628 75.8025 143.628 74.7289V48.4859C143.628 47.4123 142.754 46.542 141.674 46.542Z" fill="url(#paint4_linear_356_212)"/>
<path d="M138.743 50.0411H118.225C117.469 50.0411 116.857 50.6504 116.857 51.4019V71.8131C116.857 72.5646 117.469 73.1738 118.225 73.1738H138.743C139.499 73.1738 140.111 72.5646 140.111 71.8131V51.4019C140.111 50.6504 139.499 50.0411 138.743 50.0411Z" fill="#FBFBFF" stroke="#040F16" stroke-width="1.2"/>
<path d="M139.471 49.8176L140.162 50.5049L143.455 47.2293L142.764 46.542L139.471 49.8176Z" fill="#040F16"/>
<path d="M113.339 76.0606L114.03 76.7479L117.323 73.4723L116.632 72.785L113.339 76.0606Z" fill="#040F16"/>
<path d="M140.411 72.785L139.72 73.4723L142.764 76.5001L143.455 75.8129L140.411 72.785Z" fill="#040F16"/>
<path d="M114.03 46.5421L113.339 47.2294L116.689 50.561L117.379 49.8737L114.03 46.5421Z" fill="#040F16"/>
<path d="M123.965 59.6921C123.965 59.3124 124.016 58.958 124.117 58.6289C124.226 58.2999 124.372 58.0151 124.556 57.7747C124.741 57.5342 124.958 57.3476 125.206 57.2147C125.46 57.0755 125.734 57.0059 126.026 57.0059H132.457V65.3302H134.528C134.503 65.5517 134.438 65.7636 134.337 65.9662C134.242 66.1623 134.118 66.3332 133.964 66.4787C133.819 66.6243 133.65 66.7413 133.459 66.8299C133.268 66.9122 133.067 66.9533 132.858 66.9533H131.837C131.526 66.9533 131.229 66.8489 130.949 66.64C130.67 66.425 130.437 66.1371 130.253 65.7764C130.069 66.1371 129.836 66.425 129.557 66.64C129.276 66.8489 128.98 66.9533 128.669 66.9533H125.777C125.53 66.9533 125.295 66.89 125.072 66.7635C124.849 66.6369 124.655 66.4661 124.49 66.2509C124.33 66.0358 124.203 65.7858 124.108 65.5011C124.013 65.21 123.965 64.8999 123.965 64.5708V59.6921ZM130.186 65.3302V58.6385H126.236V65.3302H130.186Z" fill="black"/>
<path d="M193.337 59.4263C193.337 59.0909 193.384 58.7776 193.479 58.4866C193.575 58.1955 193.702 57.9424 193.861 57.7272C194.026 57.5057 194.221 57.3318 194.444 57.2052C194.666 57.0787 194.902 57.0154 195.149 57.0154H200.216C200.464 57.0154 200.697 57.0787 200.913 57.2052C201.136 57.3318 201.329 57.5057 201.495 57.7272C201.66 57.9424 201.79 58.1955 201.886 58.4866C201.982 58.7776 202.029 59.0909 202.029 59.4263V62.5871H195.617V65.3302H202.621C202.595 65.5516 202.532 65.7636 202.43 65.9662C202.334 66.1623 202.21 66.3332 202.058 66.4787C201.911 66.6243 201.743 66.7413 201.552 66.8299C201.361 66.9122 201.161 66.9533 200.951 66.9533H195.149C194.902 66.9533 194.666 66.89 194.444 66.7635C194.221 66.6369 194.026 66.4661 193.861 66.2509C193.702 66.0295 193.575 65.7732 193.479 65.482C193.384 65.1909 193.337 64.8778 193.337 64.5424V59.4263ZM199.749 61.2582V58.6385H195.617V61.2582H199.749Z" fill="black"/>
<path d="M156.475 57.0154H158.755V60.8311L161.074 57.7368C161.278 57.4963 161.488 57.3159 161.704 57.1957C161.927 57.0691 162.198 57.0059 162.515 57.0059C162.769 57.0059 163.011 57.0691 163.24 57.1957C163.476 57.3222 163.679 57.4963 163.851 57.7177C164.03 57.9329 164.169 58.186 164.271 58.4771C164.379 58.7682 164.433 59.0814 164.433 59.4168V60.4894L166.437 57.7368C166.64 57.5026 166.869 57.3222 167.124 57.1957C167.378 57.0691 167.661 57.0059 167.973 57.0059C168.227 57.0059 168.469 57.0691 168.698 57.1957C168.933 57.3222 169.137 57.4963 169.309 57.7177C169.486 57.9329 169.627 58.186 169.729 58.4771C169.837 58.7682 169.891 59.0814 169.891 59.4168V65.3302H171.589C171.564 65.5517 171.5 65.7636 171.399 65.9662C171.303 66.1623 171.179 66.3332 171.026 66.4787C170.88 66.6243 170.712 66.7413 170.52 66.8299C170.33 66.9122 170.129 66.9533 169.919 66.9533H169.404C169.156 66.9533 168.921 66.89 168.698 66.7635C168.482 66.6369 168.294 66.4661 168.135 66.2509C167.976 66.0295 167.849 65.7732 167.753 65.4821C167.664 65.191 167.62 64.8778 167.62 64.5424V58.8378L164.433 62.682V66.9533H162.153V58.8378L158.755 63.0142V66.9533H156.475V57.0154Z" fill="black"/>
<defs>
<linearGradient id="paint0_linear_356_212" x1="163.658" y1="46.542" x2="163.658" y2="76.6728" gradientUnits="userSpaceOnUse">
<stop stop-color="#EE014B"/>
<stop offset="1" stop-color="#EA2DFC"/>
</linearGradient>
<linearGradient id="paint1_linear_356_212" x1="163.658" y1="12.5233" x2="163.658" y2="42.6542" gradientUnits="userSpaceOnUse">
<stop stop-color="#EE014B"/>
<stop offset="1" stop-color="#EA2DFC"/>
</linearGradient>
<linearGradient id="paint2_linear_356_212" x1="197.855" y1="46.542" x2="197.855" y2="76.6728" gradientUnits="userSpaceOnUse">
<stop stop-color="#EE014B"/>
<stop offset="1" stop-color="#EA2DFC"/>
</linearGradient>
<linearGradient id="paint3_linear_356_212" x1="109.431" y1="48.486" x2="-1.60564e-05" y2="48.486" gradientUnits="userSpaceOnUse">
<stop stop-color="#EA2DFC"/>
<stop offset="0.802885" stop-color="#EE014B"/>
</linearGradient>
<linearGradient id="paint4_linear_356_212" x1="128.484" y1="46.542" x2="128.484" y2="76.6728" gradientUnits="userSpaceOnUse">
<stop stop-color="#EE014B"/>
<stop offset="1" stop-color="#EA2DFC"/>
</linearGradient>
</defs>
</svg>
